<?xml version="1.0" encoding="utf-8"?>
<!-- Generator: Adobe Illustrator 26.0.3, SVG Export Plug-In . SVG Version: 6.00 Build 0)  -->
<svg version="1.0" id="katman_1" xmlns="http://www.w3.org/2000/svg" xmlns:xlink="http://www.w3.org/1999/xlink" x="0px" y="0px"
	 viewBox="0 0 1200 900" width="1200" height="900" style="enable-background:new 0 0 1200 900;" xml:space="preserve">
<style type="text/css">
	.st0{fill:#7DB43C;}
</style>
<path class="st0" d="M759.15,516h33.15c6,0,10.95-4.95,10.95-10.95v-132.45h-21.45v41.1c-2.85-3-9.9-5.25-18-5.25
	c-24.15,0-38.4,19.8-38.4,54.15C725.4,498.6,743.7,516,759.15,516z M764.55,494.25c-11.7,0-17.4-16.65-17.4-31.05
	c0-24.75,6.75-33.15,18.9-33.15c7.05,0,13.2,3,15.9,7.05l0,57H764.55z M984.75,436.95c-7.2-14.85-14.85-25.8-33.6-25.8h-21.3
	c-6,0-10.95,4.95-10.95,10.95V516h21.45v-83.25h10.8c6.45,0,8.55,3.15,13.35,12.75L984.75,436.95z M708,516v-72.6
	c0-18.75-13.5-32.25-32.25-32.25H640.5c-6,0-10.95,4.95-10.95,10.95V516H651v-83.25h24.75c6,0,10.95,4.95,10.95,10.95V516H708z
	 M252,483c0-8.1,1.65-20.1,36.9-10.05v21.45h-26.55C256.2,494.25,252,489.15,252,483z M230.55,483.3
	c0,17.1,13.95,32.7,31.05,32.7h37.65c6,0,10.95-4.95,10.95-10.95l0-61.65c0-18.75-13.5-32.25-32.25-32.25h-40.2v21.6h40.2
	c6,0,10.95,4.95,10.95,10.95v9.3C262.65,445.95,230.55,447.45,230.55,483.3z M549.6,483c0-8.1,1.65-20.1,36.9-10.05v21.45h-26.55
	C553.8,494.25,549.6,489.15,549.6,483z M528.15,483.3c0,17.1,13.95,32.7,31.05,32.7h37.65c6,0,10.95-4.95,10.95-10.95l0-61.65
	c0-18.75-13.5-32.25-32.25-32.25h-40.2v21.6h40.2c6,0,10.95,4.95,10.95,10.95v9.3C560.25,445.95,528.15,447.45,528.15,483.3z
	 M499.35,369.15c-6.9,0-12.6,5.7-12.6,12.6c0,6.9,5.7,12.6,12.6,12.6s12.6-5.7,12.6-12.6C511.95,374.85,506.25,369.15,499.35,369.15z
	 M451.2,411.15v21.6h37.35V516H510v-94.05c0-6-4.95-10.95-10.95-10.95L451.2,411.15z M465.75,516v-21.75h-37.35v-83.25h-21.45v94.05
	c0,6,4.95,10.95,10.95,10.95H465.75z M389.4,516v-21.75h-37.35v-83.25H330.6v94.05c0,6,4.95,10.95,10.95,10.95H389.4z M843.75,447
	c0-6.9,6.15-16.8,18.75-16.8c11.1,0,16.35,7.05,16.35,13.65c0,10.05-7.8,11.7-18.45,11.7c-4.95,0-11.4-0.75-16.5-1.95V447z
	 M857.7,494.25c-7.65,0-13.65-6.6-14.1-14.1v-6.45c5.7,1.35,11.7,1.95,17.85,1.95c23.85,0,39.45-9,39.45-31.65
	c0-17.55-12.45-35.55-38.1-35.55c-17.4,0-40.95,13.05-40.8,37.5l0,33.6c0,23.55,18.6,36.45,35.55,36.45H894v-21.75
	C894,494.25,857.7,494.25,857.7,494.25z M1055.7,375.9v157.8c0,23.25-18.9,42-42,42H199.2c-23.25,0-42-18.9-42-42V333.9h856.5
	C1036.8,333.9,1055.7,352.8,1055.7,375.9"/>
</svg>